<svg width="25" height="29" viewBox="0 0 25 29" fill="none" xmlns="http://www.w3.org/2000/svg">
<path d="M15.6667 0.333344H10.3333C9.60001 0.333344 9.00001 0.933344 9.00001 1.66668C9.00001 2.40001 9.60001 3.00001 10.3333 3.00001H15.6667C16.4 3.00001 17 2.40001 17 1.66668C17 0.933344 16.4 0.333344 15.6667 0.333344ZM13 17.6667C13.7333 17.6667 14.3333 17.0667 14.3333 16.3333V11C14.3333 10.2667 13.7333 9.66668 13 9.66668C12.2667 9.66668 11.6667 10.2667 11.6667 11V16.3333C11.6667 17.0667 12.2667 17.6667 13 17.6667ZM22.3733 8.85334L23.3733 7.85334C23.88 7.34668 23.8933 6.50668 23.3733 5.98668L23.36 5.97334C22.84 5.45334 22.0133 5.46668 21.4933 5.97334L20.4933 6.97334C18.4267 5.32001 15.8267 4.33334 13 4.33334C6.60001 4.33334 1.16001 9.61334 1.00001 16.0133C0.826678 22.7867 6.25334 28.3333 13 28.3333C19.64 28.3333 25 22.96 25 16.3333C25 13.5067 24.0133 10.9067 22.3733 8.85334ZM13 25.6667C7.84001 25.6667 3.66668 21.4933 3.66668 16.3333C3.66668 11.1733 7.84001 7.00001 13 7.00001C18.16 7.00001 22.3333 11.1733 22.3333 16.3333C22.3333 21.4933 18.16 25.6667 13 25.6667Z" fill="#E5E5E5"/>
</svg>
